<svg width="20" height="20" viewBox="0 0 20 20" xmlns="http://www.w3.org/2000/svg">
<path d="M7.99997 7.69231C7.03749 7.69231 6.21354 7.34961 5.52813 6.66421C4.84271 5.97879 4.5 5.15484 4.5 4.19236C4.5 3.22986 4.84271 2.40591 5.52813 1.72051C6.21354 1.03509 7.03749 0.692383 7.99997 0.692383C8.96246 0.692383 9.78641 1.03509 10.4718 1.72051C11.1572 2.40591 11.5 3.22986 11.5 4.19236C11.5 5.15484 11.1572 5.97879 10.4718 6.66421C9.78641 7.34961 8.96246 7.69231 7.99997 7.69231ZM0.5 15.3077V13.0846C0.5 12.5795 0.62885 12.1222 0.88655 11.7125C1.14423 11.3029 1.50384 10.986 1.96537 10.7616C2.79616 10.3475 3.69359 10.0017 4.65768 9.72408C5.62178 9.44653 6.73587 9.30776 7.99997 9.30776H8.29227C8.37304 9.30776 8.46022 9.31801 8.55382 9.33851C8.45254 9.57441 8.36888 9.81479 8.30285 10.0597C8.23683 10.3045 8.18203 10.5539 8.13845 10.8077H7.99997C6.84869 10.8077 5.82947 10.9401 4.9423 11.2048C4.05512 11.4696 3.29229 11.768 2.65383 12.1C2.42691 12.2218 2.2612 12.3641 2.1567 12.5269C2.05222 12.6898 1.99998 12.8757 1.99998 13.0846V13.8077H8.29997C8.37432 14.0615 8.4708 14.3192 8.5894 14.5808C8.70798 14.8423 8.83843 15.0846 8.98073 15.3077H0.5ZM14.1058 16.048L13.8827 14.7211C13.6442 14.6506 13.4199 14.5583 13.2096 14.4442C12.9993 14.3301 12.7993 14.1872 12.6096 14.0154L11.3423 14.4557L10.6308 13.2462L11.6654 12.4C11.5936 12.141 11.5577 11.8859 11.5577 11.6346C11.5577 11.3833 11.5936 11.1282 11.6654 10.8692L10.6404 10.0039L11.3519 8.79428L12.6096 9.24428C12.7929 9.07248 12.9913 8.93113 13.2048 8.82023C13.4183 8.70933 13.6442 8.61863 13.8827 8.54811L14.1058 7.22121H15.5288L15.7423 8.54811C15.9807 8.61863 16.2067 8.7119 16.4201 8.82793C16.6336 8.94395 16.832 9.09298 17.0153 9.27503L18.273 8.79428L18.9845 10.0346L17.9595 10.9C18.0313 11.1405 18.0672 11.391 18.0672 11.6515C18.0672 11.9121 18.0313 12.1615 17.9595 12.4L18.9942 13.2462L18.2826 14.4557L17.0153 14.0154C16.8256 14.1872 16.6256 14.3301 16.4153 14.4442C16.2051 14.5583 15.9807 14.6506 15.7423 14.7211L15.5288 16.048H14.1058ZM14.8085 13.5385C15.3323 13.5385 15.7804 13.352 16.1529 12.979C16.5253 12.606 16.7115 12.1576 16.7115 11.6338C16.7115 11.11 16.525 10.6619 16.152 10.2894C15.779 9.917 15.3306 9.73078 14.8068 9.73078C14.283 9.73078 13.8349 9.91728 13.4625 10.2903C13.09 10.6633 12.9038 11.1117 12.9038 11.6355C12.9038 12.1593 13.0903 12.6074 13.4633 12.9798C13.8363 13.3522 14.2847 13.5385 14.8085 13.5385ZM7.99997 6.19236C8.54997 6.19236 9.02081 5.99653 9.41247 5.60486C9.80414 5.21319 9.99998 4.74236 9.99998 4.19236C9.99998 3.64236 9.80414 3.17153 9.41247 2.77986C9.02081 2.38819 8.54997 2.19236 7.99997 2.19236C7.44997 2.19236 6.97914 2.38819 6.58747 2.77986C6.19581 3.17153 5.99997 3.64236 5.99997 4.19236C5.99997 4.74236 6.19581 5.21319 6.58747 5.60486C6.97914 5.99653 7.44997 6.19236 7.99997 6.19236Z" fill="#3D404B"/>
</svg>