<svg width="20" height="20" viewBox="0 0 20 20" xmlns="http://www.w3.org/2000/svg">
<path d="M3.55768 19.5C2.71281 19.5 1.99198 19.2016 1.3952 18.6048C0.7984 18.008 0.5 17.2871 0.5 16.4423V3.75C0.5 2.84743 0.816025 2.08013 1.44807 1.44808C2.08012 0.816026 2.84743 0.5 3.75 0.5H15.5V14.8846C15.0705 14.8846 14.7035 15.0368 14.399 15.3413C14.0945 15.6458 13.9422 16.0128 13.9422 16.4423C13.9422 16.8718 14.0945 17.2388 14.399 17.5433C14.7035 17.8477 15.0705 18 15.5 18V19.5H3.55768ZM1.99997 13.8443C2.22689 13.6891 2.47016 13.5737 2.72977 13.4981C2.98939 13.4224 3.26536 13.3846 3.55768 13.3846H4.1923V1.99998H3.75C3.26922 1.99998 2.85735 2.17145 2.5144 2.5144C2.17145 2.85735 1.99997 3.26922 1.99997 3.75V13.8443ZM5.69225 13.3846H14V1.99998H5.69225V13.3846ZM3.55768 18H12.9019C12.757 17.7731 12.6442 17.5324 12.5634 17.2779C12.4827 17.0234 12.4423 16.7448 12.4423 16.4423C12.4423 16.1564 12.4801 15.882 12.5558 15.6192C12.6314 15.3564 12.7468 15.1115 12.9019 14.8846H3.55768C3.11153 14.8846 2.74037 15.0368 2.4442 15.3413C2.14805 15.6458 1.99997 16.0128 1.99997 16.4423C1.99997 16.8884 2.14805 17.2596 2.4442 17.5558C2.74037 17.8519 3.11153 18 3.55768 18Z"/>
</svg>