<svg width="20" height="20" viewBox="0 0 20 20" xmlns="http://www.w3.org/2000/svg">
<path d="M6.1923 6.69225V5.1923H14.8077V6.69225H6.1923ZM6.1923 9.57688V8.0769H14.8077V9.57688H6.1923ZM8.92305 19.5H2.99997C2.30128 19.5 1.70993 19.258 1.22595 18.774C0.741983 18.29 0.5 17.6987 0.5 17V14.1154H3.5V0.5H17.5V7.28845L16 8.78843V1.99998H4.99997V14.1154H10.673L9.17308 15.6153H1.99997V17C1.99997 17.2833 2.09581 17.5208 2.28747 17.7125C2.47914 17.9041 2.71664 18 2.99997 18H8.92305V19.5ZM11.1154 19.5V16.8577L17.3827 10.6154L20.0153 13.2423L13.7577 19.5H11.1154ZM12.3077 18.3077H13.2577L16.5038 15.0461L16.0442 14.5711L15.5788 14.1019L12.3077 17.3577V18.3077ZM16.0442 14.5711L15.5788 14.1019L16.5038 15.0461L16.0442 14.5711Z" />
</svg>